<svg xmlns="http://www.w3.org/2000/svg" width="48" height="48" viewBox="0 0 256 256" fill="none" id="my-svg">
  <defs><pattern id="a" patternUnits="userSpaceOnUse" width="80" height="80" patternTransform="scale(3.19) rotate(0)"><rect x="0" y="0" width="100%" height="100%" fill="hsla(0,0%,100%,1)"></rect><path d="M-20.133 4.568C-13.178 4.932-6.452 7.376 0 10c6.452 2.624 13.036 5.072 20 5 6.967-.072 13.56-2.341 20-5 6.44-2.659 13.033-4.928 20-5 6.964-.072 13.548 2.376 20 5s13.178 5.068 20.133 5.432" stroke-width="30" stroke="#ffc400" fill="none"></path><path d="M-20.133 24.568C-13.178 24.932-6.452 27.376 0 30c6.452 2.624 13.036 5.072 20 5 6.967-.072 13.56-2.341 20-5 6.44-2.659 13.033-4.928 20-5 6.964-.072 13.548 2.376 20 5s13.178 5.068 20.133 5.432" stroke-width="30" stroke="#ff8c00" fill="none"></path><path d="M-20.133 44.568C-13.178 44.932-6.452 47.376 0 50c6.452 2.624 13.036 5.072 20 5 6.967-.072 13.56-2.341 20-5 6.44-2.659 13.033-4.928 20-5 6.964-.072 13.548 2.376 20 5s13.178 5.068 20.133 5.432" stroke-width="30" stroke="#ff2a00" fill="none"></path><path d="M-20.133 64.568C-13.178 64.932-6.452 67.376 0 70c6.452 2.624 13.036 5.072 20 5 6.967-.072 13.56-2.341 20-5 6.44-2.659 13.033-4.928 20-5 6.964-.072 13.548 2.376 20 5s13.178 5.068 20.133 5.432" stroke-width="30" stroke="#cf0000" fill="none"></path></pattern>
    <linearGradient id="gradient1">
      <stop class="stop1" offset="0%" stop-color="#8f66ff"></stop>
      <stop class="stop2" offset="100%" stop-color="#3d12ff"></stop>
    </linearGradient>
  </defs>
  <rect id="backgr" width="256" height="256" fill="none" rx="60"></rect>
  <g id="group" transform="translate(0,0) scale(1.0)">
    <path d="M181.333 180.661C181.333 180.661 160.000 181.333 128.000 181.333C96.000 181.333 74.667 160.000 74.667 128.000C74.667 96.000 74.667 96.000 74.667 96.000M96.000 74.667H181.333M53.333 74.667H32.000" stroke="url(#a)" stroke-width="14" stroke-linecap="round" stroke-linejoin="round" id="secondary"></path>
    <path d="M224.000 180.661C224.000 192.443 214.449 201.995 202.667 201.995C190.884 201.995 181.333 192.443 181.333 180.661C181.333 168.879 190.884 159.328 202.667 159.328C214.449 159.328 224.000 168.879 224.000 180.661Z" stroke="#f1cb42" stroke-width="14" stroke-linecap="round" stroke-linejoin="round" id="primary"></path>
    <path d="M96.000 74.667C96.000 86.449 86.449 96.000 74.667 96.000C62.885 96.000 53.333 86.449 53.333 74.667C53.333 70.385 54.595 66.399 56.766 63.057C60.569 57.204 67.166 53.333 74.667 53.333C86.449 53.333 96.000 62.885 96.000 74.667Z" stroke="#f1cb42" stroke-width="14" stroke-linecap="round" stroke-linejoin="round" id="primary"></path>
    <path d="M224.000 74.667C224.000 86.449 214.449 96.000 202.667 96.000C190.884 96.000 181.333 86.449 181.333 74.667C181.333 62.885 190.884 53.333 202.667 53.333C214.449 53.333 224.000 62.885 224.000 74.667Z" stroke="#f1cb42" stroke-width="14" stroke-linecap="round" stroke-linejoin="round" id="primary"></path>
  </g>
</svg>