<svg xmlns="http://www.w3.org/2000/svg" width="48" height="48" viewBox="0 0 256 256" fill="none" id="my-svg">
  <defs><pattern id="a" patternUnits="userSpaceOnUse" width="80" height="80" patternTransform="scale(3.19) rotate(0)"><rect x="0" y="0" width="100%" height="100%" fill="hsla(0,0%,100%,1)"></rect><path d="M-20.133 4.568C-13.178 4.932-6.452 7.376 0 10c6.452 2.624 13.036 5.072 20 5 6.967-.072 13.56-2.341 20-5 6.44-2.659 13.033-4.928 20-5 6.964-.072 13.548 2.376 20 5s13.178 5.068 20.133 5.432" stroke-width="30" stroke="#ffc400" fill="none"></path><path d="M-20.133 24.568C-13.178 24.932-6.452 27.376 0 30c6.452 2.624 13.036 5.072 20 5 6.967-.072 13.56-2.341 20-5 6.44-2.659 13.033-4.928 20-5 6.964-.072 13.548 2.376 20 5s13.178 5.068 20.133 5.432" stroke-width="30" stroke="#ff8c00" fill="none"></path><path d="M-20.133 44.568C-13.178 44.932-6.452 47.376 0 50c6.452 2.624 13.036 5.072 20 5 6.967-.072 13.56-2.341 20-5 6.44-2.659 13.033-4.928 20-5 6.964-.072 13.548 2.376 20 5s13.178 5.068 20.133 5.432" stroke-width="30" stroke="#ff2a00" fill="none"></path><path d="M-20.133 64.568C-13.178 64.932-6.452 67.376 0 70c6.452 2.624 13.036 5.072 20 5 6.967-.072 13.56-2.341 20-5 6.44-2.659 13.033-4.928 20-5 6.964-.072 13.548 2.376 20 5s13.178 5.068 20.133 5.432" stroke-width="30" stroke="#cf0000" fill="none"></path></pattern>
    <linearGradient id="gradient1">
      <stop class="stop1" offset="0%" stop-color="#8f66ff"></stop>
      <stop class="stop2" offset="100%" stop-color="#3d12ff"></stop>
    </linearGradient>
  </defs>
  <rect id="backgr" width="256" height="256" fill="none" rx="60"></rect>
  <g id="group" transform="translate(0,0) scale(1.0)">
    <path d="M160.000 160.000C160.000 160.000 178.828 149.333 192.000 149.333C205.172 149.333 224.000 160.000 224.000 160.000V202.667L192.000 224.000L160.000 202.667V160.000Z" stroke="url(#a)" stroke-width="14" stroke-linecap="round" stroke-linejoin="round" id="secondary"></path>
    <path d="M192.000 117.333V53.333C192.000 41.551 182.449 32.000 170.667 32.000H53.333C41.551 32.000 32.000 41.551 32.000 53.333V202.667C32.000 214.449 41.551 224.000 53.333 224.000H128.000" stroke="#f1cb42" stroke-width="14" stroke-linecap="round" stroke-linejoin="round" id="primary"></path>
  </g>
</svg>