<svg xmlns="http://www.w3.org/2000/svg" width="48" height="48" viewBox="0 0 256 256" fill="none" id="my-svg">
  <defs><pattern id="a" patternUnits="userSpaceOnUse" width="80" height="80" patternTransform="scale(3.19) rotate(0)"><rect x="0" y="0" width="100%" height="100%" fill="hsla(0,0%,100%,1)"></rect><path d="M-20.133 4.568C-13.178 4.932-6.452 7.376 0 10c6.452 2.624 13.036 5.072 20 5 6.967-.072 13.56-2.341 20-5 6.44-2.659 13.033-4.928 20-5 6.964-.072 13.548 2.376 20 5s13.178 5.068 20.133 5.432" stroke-width="30" stroke="#ffc400" fill="none"></path><path d="M-20.133 24.568C-13.178 24.932-6.452 27.376 0 30c6.452 2.624 13.036 5.072 20 5 6.967-.072 13.56-2.341 20-5 6.44-2.659 13.033-4.928 20-5 6.964-.072 13.548 2.376 20 5s13.178 5.068 20.133 5.432" stroke-width="30" stroke="#ff8c00" fill="none"></path><path d="M-20.133 44.568C-13.178 44.932-6.452 47.376 0 50c6.452 2.624 13.036 5.072 20 5 6.967-.072 13.56-2.341 20-5 6.44-2.659 13.033-4.928 20-5 6.964-.072 13.548 2.376 20 5s13.178 5.068 20.133 5.432" stroke-width="30" stroke="#ff2a00" fill="none"></path><path d="M-20.133 64.568C-13.178 64.932-6.452 67.376 0 70c6.452 2.624 13.036 5.072 20 5 6.967-.072 13.56-2.341 20-5 6.44-2.659 13.033-4.928 20-5 6.964-.072 13.548 2.376 20 5s13.178 5.068 20.133 5.432" stroke-width="30" stroke="#cf0000" fill="none"></path></pattern>
    <linearGradient id="gradient1">
      <stop class="stop1" offset="0%" stop-color="#8f66ff"></stop>
      <stop class="stop2" offset="100%" stop-color="#3d12ff"></stop>
    </linearGradient>
  </defs>
  <rect id="backgr" width="256" height="256" fill="none" rx="60"></rect>
  <g id="group" transform="translate(0,0) scale(1.0)">
    <path d="M186.667 170.667V85.333M85.333 69.333H170.667M69.333 85.333V170.667M85.333 186.667H170.667" stroke="#f1cb42" stroke-width="14" stroke-linecap="round" stroke-linejoin="round" id="primary"></path>
    <path d="M53.333 85.333V53.333H85.333V69.333V85.333H69.333H53.333Z" stroke="url(#a)" stroke-width="14" stroke-linecap="round" stroke-linejoin="round" id="secondary"></path>
    <path d="M170.667 53.333H202.667V85.333H186.667H170.667V69.333V53.333Z" stroke="url(#a)" stroke-width="14" stroke-linecap="round" stroke-linejoin="round" id="secondary"></path>
    <path d="M53.333 170.667V202.667H85.333V186.667V170.667H69.333H53.333Z" stroke="url(#a)" stroke-width="14" stroke-linecap="round" stroke-linejoin="round" id="secondary"></path>
    <path d="M170.667 202.667H202.667V170.667H186.667H170.667V186.667V202.667Z" stroke="url(#a)" stroke-width="14" stroke-linecap="round" stroke-linejoin="round" id="secondary"></path>
  </g>
</svg>