<svg xmlns="http://www.w3.org/2000/svg" width="48" height="48" viewBox="0 0 256 256" fill="none" id="my-svg">
  <defs><pattern id="a" patternUnits="userSpaceOnUse" width="80" height="80" patternTransform="scale(3.19) rotate(0)"><rect x="0" y="0" width="100%" height="100%" fill="hsla(0,0%,100%,1)"></rect><path d="M-20.133 4.568C-13.178 4.932-6.452 7.376 0 10c6.452 2.624 13.036 5.072 20 5 6.967-.072 13.56-2.341 20-5 6.44-2.659 13.033-4.928 20-5 6.964-.072 13.548 2.376 20 5s13.178 5.068 20.133 5.432" stroke-width="30" stroke="#ffc400" fill="none"></path><path d="M-20.133 24.568C-13.178 24.932-6.452 27.376 0 30c6.452 2.624 13.036 5.072 20 5 6.967-.072 13.56-2.341 20-5 6.44-2.659 13.033-4.928 20-5 6.964-.072 13.548 2.376 20 5s13.178 5.068 20.133 5.432" stroke-width="30" stroke="#ff8c00" fill="none"></path><path d="M-20.133 44.568C-13.178 44.932-6.452 47.376 0 50c6.452 2.624 13.036 5.072 20 5 6.967-.072 13.56-2.341 20-5 6.44-2.659 13.033-4.928 20-5 6.964-.072 13.548 2.376 20 5s13.178 5.068 20.133 5.432" stroke-width="30" stroke="#ff2a00" fill="none"></path><path d="M-20.133 64.568C-13.178 64.932-6.452 67.376 0 70c6.452 2.624 13.036 5.072 20 5 6.967-.072 13.56-2.341 20-5 6.44-2.659 13.033-4.928 20-5 6.964-.072 13.548 2.376 20 5s13.178 5.068 20.133 5.432" stroke-width="30" stroke="#cf0000" fill="none"></path></pattern>
    <linearGradient id="gradient1">
      <stop class="stop1" offset="0%" stop-color="#8f66ff"></stop>
      <stop class="stop2" offset="100%" stop-color="#3d12ff"></stop>
    </linearGradient>
  </defs>
  <rect id="backgr" width="256" height="256" fill="none" rx="60"></rect>
  <g id="group" transform="translate(0,0) scale(1.0)">
    <path d="M106.667 32.000H149.333V56.425C154.299 57.903 159.049 59.884 163.522 62.308L180.797 45.033L210.967 75.203L193.692 92.478C196.116 96.952 198.097 101.701 199.574 106.667H224.000V149.333H199.574C198.097 154.299 196.116 159.049 193.692 163.522L210.967 180.797L180.798 210.967L163.522 193.692C159.049 196.116 154.299 198.097 149.333 199.574V224.000H106.667V199.574C101.701 198.097 96.951 196.116 92.478 193.692L75.202 210.967L45.033 180.798L62.308 163.522C59.884 159.049 57.903 154.299 56.425 149.333H32.000V106.667H56.425C57.903 101.701 59.884 96.951 62.308 92.478L45.033 75.203L75.203 45.033L92.478 62.308C96.952 59.884 101.701 57.903 106.667 56.425V32.000Z" stroke="#f1cb42" stroke-width="14" stroke-linejoin="round" id="primary"></path>
    <path d="M160.000 128.000C160.000 145.674 145.674 160.000 128.000 160.000C110.326 160.000 96.000 145.674 96.000 128.000C96.000 110.326 110.326 96.000 128.000 96.000C145.674 96.000 160.000 110.326 160.000 128.000Z" stroke="url(#a)" stroke-width="14" stroke-linejoin="round" id="secondary"></path>
  </g>
</svg>