<svg xmlns="http://www.w3.org/2000/svg" width="48" height="48" viewBox="0 0 256 256" fill="none" id="my-svg">
  <defs><pattern id="a" patternUnits="userSpaceOnUse" width="80" height="80" patternTransform="scale(3.19) rotate(0)"><rect x="0" y="0" width="100%" height="100%" fill="hsla(0,0%,100%,1)"></rect><path d="M-20.133 4.568C-13.178 4.932-6.452 7.376 0 10c6.452 2.624 13.036 5.072 20 5 6.967-.072 13.56-2.341 20-5 6.44-2.659 13.033-4.928 20-5 6.964-.072 13.548 2.376 20 5s13.178 5.068 20.133 5.432" stroke-width="30" stroke="#ffc400" fill="none"></path><path d="M-20.133 24.568C-13.178 24.932-6.452 27.376 0 30c6.452 2.624 13.036 5.072 20 5 6.967-.072 13.56-2.341 20-5 6.44-2.659 13.033-4.928 20-5 6.964-.072 13.548 2.376 20 5s13.178 5.068 20.133 5.432" stroke-width="30" stroke="#ff8c00" fill="none"></path><path d="M-20.133 44.568C-13.178 44.932-6.452 47.376 0 50c6.452 2.624 13.036 5.072 20 5 6.967-.072 13.56-2.341 20-5 6.44-2.659 13.033-4.928 20-5 6.964-.072 13.548 2.376 20 5s13.178 5.068 20.133 5.432" stroke-width="30" stroke="#ff2a00" fill="none"></path><path d="M-20.133 64.568C-13.178 64.932-6.452 67.376 0 70c6.452 2.624 13.036 5.072 20 5 6.967-.072 13.56-2.341 20-5 6.44-2.659 13.033-4.928 20-5 6.964-.072 13.548 2.376 20 5s13.178 5.068 20.133 5.432" stroke-width="30" stroke="#cf0000" fill="none"></path></pattern>
    <linearGradient id="gradient1">
      <stop class="stop1" offset="0%" stop-color="#8f66ff"></stop>
      <stop class="stop2" offset="100%" stop-color="#3d12ff"></stop>
    </linearGradient>
  </defs>
  <rect id="backgr" width="256" height="256" fill="none" rx="60"></rect>
  <g id="group" transform="translate(0,0) scale(1.0)">
    <path d="M140.666 117.961H154.667C175.285 117.961 192.000 134.816 192.000 155.607M94.001 117.961H80.000C59.381 117.961 42.667 134.816 42.667 155.607V183.843C42.667 194.239 51.024 202.667 61.333 202.667H149.333M154.667 87.249C154.667 111.871 133.926 127.373 117.333 127.373C100.741 127.373 80.000 111.871 80.000 87.249C80.000 62.627 94.424 42.667 117.333 42.667C140.243 42.667 154.667 62.627 154.667 87.249Z" stroke="#f1cb42" stroke-width="14" stroke-linecap="round" stroke-linejoin="round" id="primary"></path>
    <path d="M176.000 218.667L192.000 202.667M192.000 202.667L208.000 186.667M192.000 202.667L176.000 186.667M192.000 202.667L208.000 218.667" stroke="url(#a)" stroke-width="14" stroke-linecap="round" stroke-linejoin="round" id="secondary"></path>
  </g>
</svg>